<?xml version="1.0" encoding="utf-8"?>
<!-- Generator: Adobe Illustrator 24.0.2, SVG Export Plug-In . SVG Version: 6.00 Build 0)  -->
<svg version="1.1"
	 id="svg3147" xmlns:cc="http://creativecommons.org/ns#" xmlns:dc="http://purl.org/dc/elements/1.1/" xmlns:inkscape="http://www.inkscape.org/namespaces/inkscape" xmlns:rdf="http://www.w3.org/1999/02/22-rdf-syntax-ns#" xmlns:sodipodi="http://sodipodi.sourceforge.net/DTD/sodipodi-0.dtd" xmlns:svg="http://www.w3.org/2000/svg"
	 xmlns="http://www.w3.org/2000/svg" xmlns:xlink="http://www.w3.org/1999/xlink" x="0px" y="0px" viewBox="0 0 1280 480"
	 style="enable-background:new 0 0 1280 480;" xml:space="preserve">
<style type="text/css">
	.st0{fill:#EEDF8A;}
	.st1{fill:url(#SVGID_1_);}
	.st2{opacity:0.5;fill:url(#SVGID_2_);}
	.st3{fill:url(#SVGID_3_);}
	.st4{opacity:0.8;fill:url(#SVGID_4_);}
	.st5{fill:url(#SVGID_5_);}
	.st6{clip-path:url(#SVGID_7_);}
	.st7{fill:#FFCC00;}
	.st8{fill:#FFC200;}
	.st9{fill:#EEAF00;}
	.st10{fill:#A28000;}
	.st11{fill:#54420D;}
	.st12{clip-path:url(#SVGID_9_);}
	.st13{opacity:0.2;}
	.st14{fill:#313335;}
	.st15{fill:#262729;}
</style>
<g>
	<rect class="st0" width="1280" height="480"/>
	
		<radialGradient id="SVGID_1_" cx="642.1108" cy="-132.8979" r="328.2096" gradientTransform="matrix(0.9739 0 0 0.8835 18.7612 357.4209)" gradientUnits="userSpaceOnUse">
		<stop  offset="0.1541" style="stop-color:#FFFFFB;stop-opacity:0.9"/>
		<stop  offset="0.1787" style="stop-color:#FFFEF1;stop-opacity:0.9097"/>
		<stop  offset="0.2212" style="stop-color:#FEFCD5;stop-opacity:0.9264"/>
		<stop  offset="0.2763" style="stop-color:#FDF8A8;stop-opacity:0.9482"/>
		<stop  offset="0.3421" style="stop-color:#FCF269;stop-opacity:0.9741"/>
		<stop  offset="0.4079" style="stop-color:#FAEC23"/>
		<stop  offset="0.5735" style="stop-color:#FCF268;stop-opacity:0.7204"/>
		<stop  offset="0.7806" style="stop-color:#FDF9B9;stop-opacity:0.3706"/>
		<stop  offset="0.9278" style="stop-color:#FFFDEB;stop-opacity:0.1219"/>
		<stop  offset="1" style="stop-color:#FFFFFF;stop-opacity:0"/>
	</radialGradient>
	<rect x="0" class="st1" width="1280" height="480"/>
	<g>
		<linearGradient id="SVGID_2_" gradientUnits="userSpaceOnUse" x1="294.7751" y1="67.5648" x2="379.0998" y2="536.974">
			<stop  offset="0" style="stop-color:#F5F5F5"/>
			<stop  offset="0.3263" style="stop-color:#FAFAFA;stop-opacity:0.6737"/>
			<stop  offset="1" style="stop-color:#FFFFFF;stop-opacity:0"/>
		</linearGradient>
		<path class="st2" d="M655.9,291.4c-22.6-9.7-37.1-27.9-77.7-23.6c-23.6,6.4-23.6,6.4-23.6,6.4s-10.1-19.3-60.8-21.4
			c-50.6-2.1-67.5,12.9-81,4.3c-13.5-8.6-13.5-15-43.9-21.4c-30.4-6.4-3.4-12.9-54-21.4c-50.6-8.6-30.4-23.6-77.7-25.7
			c-47.3-2.1-40.5-15-74.3-19.3c-33.8-4.3-50.6,15-74.3,8.6c-23.6-6.4-33.8-17.2-64.2-21.4c-9.2-1.3-17.5-3.6-24.5-6.1v279.3h539.4
			c29.3-48.6,171.8-46.1,171.8-46.1S684.4,303.5,655.9,291.4z"/>
		<linearGradient id="SVGID_3_" gradientUnits="userSpaceOnUse" x1="844.6949" y1="55.1775" x2="901.3219" y2="370.4019">
			<stop  offset="0" style="stop-color:#FFFFFF"/>
			<stop  offset="0.1413" style="stop-color:#FFFFFF;stop-opacity:0.8587"/>
			<stop  offset="1" style="stop-color:#FFFFFF;stop-opacity:0"/>
		</linearGradient>
		<path class="st3" d="M1280,44.3c-6,2.1-12.8,3.9-20.5,5c-26.5,3.7-35.4,13.1-56,18.7c-20.6,5.6-35.4-11.2-64.8-7.5
			c-29.5,3.7-23.6,15-64.8,16.8c-41.2,1.9-23.6,15-67.8,22.5c-44.2,7.5-20.6,13.1-47.1,18.7c-26.5,5.6-26.5,11.2-38.3,18.7
			c-11.8,7.5-26.5-5.6-70.7-3.7c-44.2,1.9-53,18.7-53,18.7s0,0-20.6-5.6c-35.4-3.7-51.9,9.3-67.8,20.6
			c-125.9,89.6-261.7,107.9-261.7,107.9s82.3,41.8,248.7,12.6H1280V44.3z"/>
		<linearGradient id="SVGID_4_" gradientUnits="userSpaceOnUse" x1="952.0137" y1="193.0748" x2="1008.6408" y2="508.3">
			<stop  offset="0" style="stop-color:#FFFFFF"/>
			<stop  offset="0.1413" style="stop-color:#FFFFFF;stop-opacity:0.8587"/>
			<stop  offset="1" style="stop-color:#FFFFFF;stop-opacity:0"/>
		</linearGradient>
		<path class="st4" d="M1280,150.1c-6,2.1-12.8,3.9-20.5,5c-26.5,3.7-35.4,13.1-56,18.7c-20.6,5.6-35.4-11.2-64.8-7.5
			c-29.5,3.7-23.6,15-64.8,16.8c-41.2,1.9-23.6,15-67.8,22.5c-44.2,7.5-20.6,13.1-47.1,18.7c-26.5,5.6-26.5,11.2-38.3,18.7
			c-11.8,7.5-26.5-5.6-70.7-3.7c-44.2,1.9-53,18.7-53,18.7s0,0-20.6-5.6c-35.4-3.7-47.1,13.1-67.8,20.6c-20.6,7.5-76.6,7.5-76.6,7.5
			s38,70.6,63.6,113H1280V150.1z"/>
		<linearGradient id="SVGID_5_" gradientUnits="userSpaceOnUse" x1="77.4933" y1="-27.6938" x2="134.0223" y2="286.9857">
			<stop  offset="0" style="stop-color:#FFFFFF"/>
			<stop  offset="0.1413" style="stop-color:#FFFFFF;stop-opacity:0.8587"/>
			<stop  offset="1" style="stop-color:#FFFFFF;stop-opacity:0"/>
		</linearGradient>
		<path class="st5" d="M0,44.2c0,0,49.5,0.8,73.6,27.2s52.2,17,76.2,33.1s117.7,28,89.6,66.3s-34.8,90.1-103,101.1S0,287.7,0,287.7"
			/>
	</g>
</g>
<g>
	<defs>
		<rect id="SVGID_6_" width="1280" height="480"/>
	</defs>
	<clipPath id="SVGID_7_">
		<use xlink:href="#SVGID_6_"  style="overflow:visible;"/>
	</clipPath>
	<g class="st6">
		<path class="st7" d="M1280,480.5V77.9l-56.8,64.9c0,0-24.3,6.2-33.1,7.1c-8.8,0.9-27.8,7.1-31.8,10.1c-4,2.9-19.2,7.8-28.1,10.4
			c-8.9,2.7-42.8,8-47.5,10.7c-4.6,2.7-36.4,19.6-42.6,22.3c-6.2,2.7-67.8,25.9-71.3,27.7c-3.6,1.8-36.6,17.8-43.7,24.9
			c-7.1,7.1-49.9,17-49.9,17s-21.4,12.5-24,16.9c-2.6,4.5-17,15.2-26,15.2c-7.2,0-66.5,4.6-104,12.4c-5.3-5.4-26.3-27.4-27.1-32.5
			c-0.9-5.8-22.3-28.1-22.3-28.1s-47.3-21.4-52.6-21.4s-66-10.5-66-10.5L512,213.3c0,0-17.5-3.6-24.7-9.6
			c-7.1-6.1-16.1-2.9-16.1-2.9s-33.9-4.5-41.9-10.7c-8-6.3-15.2-17.8-19.6-22.3c-4.5-4.5-33-22.3-41.3-24.6
			c-8.3-2.3-46.1-10.2-56.1-11.1c-9.9-0.9-80.1-1.8-103.3-3.6C185.9,126.8,15.6,78.6,0,78.8v401.7H1280z"/>
		<g>
			<path class="st8" d="M0,349.7h272.9c0,0-26.8-27.1-33.4-30.5c-6.7-3.5-21.8-16.1-27.6-20.7c-5.8-4.6-14.3-12.1-17.8-12.1
				s-8.5-2.9-7.6-6.3c0.9-3.5-47.7-49.5-51.7-53.5c-4-4-20.1-21.9-25.9-24.2c-5.8-2.3-5.8-18.4-12.5-31.7
				c-6.7-13.2-40.6-57-47.7-62.7c-7.1-5.8-24.5-29.9-29.9-35.1C14,68.3,9,51.8,0,43.1V349.7z"/>
			<path class="st8" d="M1280,43c-6.4,4.6-11,6-15.6,9.7c-4.9,4-7.1,10.3-11.1,12c-4,1.8-9.8,2.2-11.6,4.5c-1.8,2.2-1.3,12-5.4,14.3
				c-4,2.2-2.7,3.6-4.9,8c-2.2,4.5-10.7,7.6-12.4,10.3s-13.9,30.8-15.2,34.8c-1.3,4-11.1,23.6-16.1,29c-4.9,5.4-11.1,21-12,25
				s-5.8,6.2-6.6,10.3c-0.8,4-3.2,6.7-3.8,10.3c-0.6,3.6-5.2,9.8-5.9,13.8c-0.7,4-5.5-0.4-9.9,0c-4.4,0.4-7.2,8.5-8.8,13.4
				c-1.6,4.9-18,13.8-22.9,16.9c-4.9,3.1-11.1,12.9-11.1,12.9l-11,12c0,0-8.6,3.6-11.8,8.5c-3.1,4.9-15.6,14.7-23.6,17.8
				c-8,3.1-27.2,23.6-34.3,30.3c-7.1,6.7-34.8,21.8-49.5,28.5l303.6-24.1V43z"/>
		</g>
		<g>
			<path class="st9" d="M1006.7,358.2c0,0-97.4-28.5-100.1-28.8c-2.7-0.2-20.3-7.4-23.4-7.6c-3.1-0.2-12.7-0.4-14.7-0.2
				c-2,0.2-12.9,0.2-16.3-0.4c-3.3-0.7-4-1.8-6.2-1.3c-2.2,0.4-16.5,0-18.1-0.9c-1.6-0.9-8.7-6.9-10.3-7.6s-9.4-2.9-10.7-4.2
				s-6.2-6.2-7.4-6.5c-1.1-0.2-4.7-2.2-8.7-5.6c-4-3.3-9.1-2.9-9.1-2.9s-1.8,6.9-3.3,8.5c-1.6,1.6-4.2-1.6-7.1,0
				c-2.9,1.6-5.1,6.5-8.5,7.8c-3.3,1.3-7.8-0.2-12.9-2c-5.1-1.8-18.9-1.6-21.8-0.9c-2.9,0.7-22.3,0-30.5-0.9
				c-8.2-0.9-36.6-11.4-41-13.4c-4.5-2-86.9,20.5-92.7,22.1c-5.8,1.6-29.9,18.5-33.2,20.7c-3.3,2.2-19.2,6.2-21.6,7.8
				c-2.5,1.6-12.5,5.6-18.3,8c-5.8,2.5-44.1,12-46.8,12.7c-2.7,0.7-10.9,0.4-13.2,2.7c-2.2,2.2-9.8,3.3-20.5,3.3
				c-10.7,0-48.6-9.8-60-12.7c-11.4-2.9-46.6-9.4-69.6-11.1c-23-1.8-120.3-6.7-121.6-6.7c-1.3,0-5.6-2.2-5.6-4.6
				c0-2.5,0-14.3,0-14.3l-1.8,0.2c0,0,0.4,11.1,0,13c-0.4,1.9-3.6,5.2-3.6,5.2s-14.7,0.9-22.3,0c-9.8-11.6-37.9-16.1-44.1-16.5
				c-3.6-1.8-28.5-8-28.5-8s-0.5-12.5,0-15.2c0.4-2.7-11.1-12.9-11.1-12.9s-17.8,0.9-21.2,2.2c-3.4,1.3-7.9,11.1-7.9,11.1v7.2
				L0,308.4v172.1h1280V308C1221.1,342.7,1006.7,358.2,1006.7,358.2z"/>
			<g>
				<path class="st10" d="M40.6,298.3c-0.1-0.9-0.8-1.9-1.7-2c-0.1-1.1-1.1-2.1-2.5-1.8c-1.6,0.4-3.1,0.8-4.7,1.1
					c-0.4-0.5-0.9-0.8-1.5-0.8c-1.3,0-2.5,0.2-3.7,0.5c-0.2,0-0.3-0.1-0.5-0.1c-2,0-3.8,0.3-5.5,1c-0.6,0.2-1.2,0.5-1.7,0.8
					c-0.4,0.2-0.8,0.4-1.1,0.6c-0.4,0.3-0.7,0.6-0.8,1c-0.4,0.5-0.7,1-0.9,1.6c-0.9,2.3-0.5,4.9,1.2,6.5c-0.4,0.2-0.7,0.6-0.8,1.1
					c-0.3,1.2-0.6,2.4-0.9,3.6c-0.5,2.1,2.6,3.6,3.7,1.5c0.1-0.4,0.3-0.7,0.5-0.9c2.2,1.5,4.7,2.6,7.3,3.2c0.2,0.2,0.4,0.3,0.6,0.5
					c3.5,1.8,7,2.8,10.8,3.3c0.7,0.1,1.5-0.5,1.8-1.2c0.6-0.3,1.1-0.8,1.3-1.4c0.4-0.5,0.6-1.2,0.4-1.9c1.8,0.8,3.4-1.1,2.6-2.8
					C42.1,307.5,40.9,303.1,40.6,298.3z M28.3,308.3c0-0.1,0-0.1,0-0.2c0.2,0.1,0.3,0.2,0.5,0.2C28.7,308.3,28.5,308.3,28.3,308.3z
					 M34.7,308.7c-0.4,0.3-0.9,0.5-1.3,0.6c0-0.1,0-0.2,0.1-0.4c0.7,0,1.4-0.4,1.7-1.4c0-0.1,0-0.1,0-0.2c0,0.3,0,0.5,0.1,0.8
					c0,0.1,0.1,0.2,0.1,0.4C35.1,308.5,34.9,308.6,34.7,308.7z"/>
				<path class="st10" d="M204.1,357.9c2,0,2.7-2.7,1-3.7c-7.8-4.9-16.7-5.1-25.6-4.3c-1.8,0.2-3.5,0.3-5.3,0.5
					c-0.2-0.8-0.8-1.4-1.8-1.3c-5.7,0.6-11.2,1.7-16.6,3.2c-4,0.4-8.1,0.9-12.1,1.3c-2.4,0.2-2.6,3.7-0.5,4c0,0.1,0,0.1,0,0.2
					c-0.8,0.1-1.6,0-2.3-0.5c-0.5-0.4-1.2-0.4-1.7-0.1c-0.5-0.3-1-0.6-1.5-0.9c-0.6-0.3-1.3-0.3-1.9,0c-1,0-1.9,0.9-2,2
					c-0.1,0.6-0.1,1.1-0.2,1.7c-0.2,1.6,1.7,2.3,2.9,1.7c0,0,0.1,0.1,0.1,0.1c-0.3,1,0.2,2.3,1.3,2.7c1.8,0.7,3.5,1.3,5.3,2
					c0.5,0.2,0.9,0.2,1.3,0c0.6,0.7,1.6,0.8,2.4,0.4c0.3,0.7,0.9,1,1.6,1c0.6,1.1,2.1,1.6,3.2,0.6c1.3-1.3,2.6-2.6,3.9-3.9
					c2.4,2.6,6.9,1.1,10-0.9c6.2-4.1,11.1-5.1,18.4-5.5C190.5,357.8,197.3,357.8,204.1,357.9z M167.2,357.5
					C167.2,357.5,167.2,357.5,167.2,357.5c0.1-0.1,0.1-0.1,0.1-0.1C167.3,357.5,167.2,357.5,167.2,357.5z"/>
				<path class="st10" d="M735.6,372.2c-0.6-0.2-1.2-0.4-1.9-0.6c0.4-1,0.1-2.3-1.2-2.6c-0.4-0.1-0.7-0.2-1.1-0.2
					c-0.1-0.6-0.6-1.2-1.4-1.3c-2.6-0.5-5-0.7-7.5-0.4c-0.8-0.1-1.7-0.2-2.5-0.4c-0.3-0.4-0.7-0.7-1.1-0.9c-2.4-0.9-2.4-0.8-4.8-0.3
					c-0.1-0.2-0.3-0.5-0.6-0.6c-1.4-1-2.8-2-4.2-2.9c-0.1-0.2-0.3-0.4-0.5-0.6c-2.1-1.7-4.1-3-6.5-4.1c-0.3-0.1-0.7-0.2-1-0.2
					c-0.5-0.2-1-0.5-1.5-0.7c0,0,0,0-0.1,0c0,0,0,0,0,0c-0.2-0.1-0.3-0.1-0.5-0.2c-0.4-0.2-0.8-0.2-1.2-0.1c-0.3-0.4-0.6-0.7-1-0.8
					c-0.2-0.3-0.4-0.6-0.8-0.8c-7-3.4-14.4-5.8-21.8-7.2c-0.3-0.1-0.6-0.1-0.8-0.1c-2.4-0.4-4.8-0.7-7.2-0.9
					c-13.9-4.1-29.6-1.2-43.7,2.2c-2.5,0.6-1.4,4.5,1.1,3.9c0.9-0.2,1.8-0.4,2.7-0.6c0.1,0.1,0.2,0.1,0.4,0.1
					c6.2,1.7,12.3,3.4,18.5,5c1.2,0.3,2.1-0.4,2.4-1.3c0.9,0,1.7-0.1,2.6-0.2c3.6-0.2,6.8-1.2,10-3.3c0.2-0.1,0.3-0.2,0.5-0.4
					c0.6-0.1,1.3-0.2,1.9-0.3c0.8-0.1,1.2-0.6,1.4-1.2c0.3,0,0.7,0,1,0.1c7.8,2.5,14.1,7.3,19.9,13.8c3.3,3.7,6.5,7.3,10.1,10.5
					c0.2,0.4,0.6,0.8,1.1,0.9c2.6,2.2,5.4,4.1,8.6,5.6c6.8,3.2,14.1,4.8,21.5,6c1.7,1,3.1,1.1,5.3,0.7c1.9-0.3,1.9-3.6,0-3.9
					c-0.9-0.1-1.7-0.3-2.6-0.4c-0.5-0.1-1-0.3-1.5-0.4c-0.7-0.5-1.3-0.5-1.8-0.2c-8-1.4-16.1-3.3-23.1-7.6c0.5,0,1-0.1,1.6-0.1
					c0.8,1,2.5,0.7,3.2-0.3c0.1,0,0.1-0.1,0.2-0.1c2.2-0.4,4.3-1,6.4-1.9c1.5,1.6,2.9,3.2,4.3,4.9c1.3,1.6,3.5,0,3.4-1.7
					c0.6,0.5,1.3,0.9,1.9,1.5c2,1.6,4.7-1,2.8-2.8c-0.1-0.1-0.2-0.2-0.3-0.3c2.9,0.7,5.7,1.2,8.7,1.7
					C737,376.5,738.1,373,735.6,372.2z M693.8,358.3c-0.3-0.2-0.7-0.2-1.1-0.2c0-0.2-0.1-0.3-0.1-0.5c0.4,0.1,0.9,0.2,1.3,0.4
					C693.8,358.1,693.8,358.2,693.8,358.3z M708.2,368.7c-0.1,0.1-0.3,0.1-0.4,0.2c0-0.2,0-0.4,0-0.6c0.3,0.1,0.6,0.1,0.9,0.1
					c0,0,0.1,0.1,0.1,0.1C708.7,368.6,708.4,368.6,708.2,368.7z"/>
				<path class="st10" d="M808.2,333c-4-1.8-8.4-2.6-13-3.1c-0.8-0.3-1.6-0.5-2.4-0.7c-0.2-0.6-0.6-1.1-1.3-1.4
					c-0.7-0.3-1.4-0.5-2-0.6c0.2-0.8-0.2-1.7-0.9-2.2c-2.6-1.9-4.8-2.3-7.9-1.5c-0.8,0.2-1.5,1.1-1.5,1.9c0,0,0,0.1,0,0.1
					c-1.9-0.4-3.7-0.9-5.6-1.3c-1.2-0.2-2.2,0.6-2.5,1.6c-0.1,0.1-0.2,0.3-0.2,0.5c-0.3,1-0.7,1.9-1,2.9c-0.3,1,0.2,1.8,1,2.2
					c-1.8,1.4-3.5,2.8-5.2,4.3c-0.3,0.3-0.5,0.7-0.6,1c-1.1,0.9-2.2,1.8-3.3,2.8c-0.1,0.1-0.1,0.1-0.1,0.2c-4.6,0-8.9,1.3-12.8,4.1
					c-1.3-0.1-2.6-0.3-4-0.3c-2.6-0.2-2.6,3.8,0,4c0.7,0,1.4,0.1,2.1,0.2c0.3,0.4,0.6,0.6,1,0.7c2.6,0.5,4.8,0.7,7.5,0.4
					c0.8-0.1,1.4-0.6,1.7-1.3c0.3,0.7,0.9,1.2,1.7,1.1c4-0.3,6.8-1.6,9.4-4.7c0.4-0.5,0.6-1,0.5-1.6c0.3-0.1,0.6-0.2,0.9-0.3
					c1-0.3,1.4-1.1,1.4-1.8c6.9-2.2,14-3.6,21.2-4.2c0.6,0.2,1.2,0.4,1.8,0.6c1,0.3,1.7-0.2,2.2-0.8c1.1,0,2.2-0.1,3.3-0.1
					c0.7,0,1.2-0.3,1.5-0.7c1.6,0.4,3.2,0.9,4.6,1.6C808.5,337.6,810.5,334.1,808.2,333z M757.8,345.1c-0.1,0.1-0.2,0.3-0.3,0.4
					c-0.2-0.4-0.6-0.7-1.2-0.8c-0.2,0-0.3-0.1-0.5-0.1c1-0.4,2.1-0.6,3.1-0.8C758.5,344.3,758.1,344.7,757.8,345.1z M781.7,333.4
					C781.7,333.4,781.7,333.4,781.7,333.4c0.1-0.1,0.1-0.2,0.2-0.3c0.4,0,0.8,0,1.2,0.1C782.7,333.3,782.2,333.3,781.7,333.4z"/>
				<path class="st10" d="M877.1,329.7c1.4-1.3,0-4.1-2-3.4c-0.7,0.3-1.4,0.6-2.2,0.8c-1-0.5-1.9-0.8-2.9-1.1
					c-0.1-0.1-0.1-0.2-0.2-0.2c0.7-1.3-0.2-2.9-1.7-3c-1.3-0.1-2.6-0.1-3.9-0.2c-1.2-0.1-1.9,0.8-1.9,1.7c-0.1,0-0.1,0.1-0.2,0.1
					c-1.1,0.7-1.5,2.8,0,3.5c0.1,0.3,0.2,0.6,0.4,0.9c0.5,0.6,1,1.1,1.5,1.6c-0.5,0.2-1,0.5-1.6,0.7c-1,0.5-1.2,1.6-0.8,2.5
					c-0.3,0.2-0.6,0.5-0.9,0.7c-0.7,0.6-0.7,1.7-0.3,2.4c-3.7,0.7-7.4,1.5-11.2,2.2c-2.5,0.5-1.5,4.4,1.1,3.9
					c6.3-1.2,12.6-2.5,19-3.7c1.9-0.4,1.9-3.5,0-3.9c-0.7-0.2-1.5-0.3-2.2-0.5c0.6-0.3,1.1-0.5,1.7-0.8c0.4,0.5,0.9,0.9,1.6,0.9
					c2.6,0.1,4.3-0.6,6-2.5c0.7-0.8,0.7-1.8,0.2-2.6C876.9,329.9,877,329.8,877.1,329.7z"/>
				<path class="st10" d="M407.7,387.1c-0.4-0.3-0.9-0.5-1.3-0.8c0-0.2,0-0.5-0.1-0.7c-1.3-3.4-5.3-3.9-9.7-3.3
					c-4.9-1.3-10.1-1.7-14.9-0.5c-4.5,1.1-6.8,5.4-10.7,7.6c-5.2,3-11.5,3.8-17.3,4.7c-2.4,0.4-1.5,3.7,0.5,3.9
					c10.5,1.3,20.8-4.7,30.1-9.6c0.5,0.4,1.1,0.7,1.8,0.5c0.8-0.2,4.6-1.3,8.3-2c0.2,0.6,0.6,1.1,1.4,1.3c1.1,0.3,2.2,0.4,3.2,0.5
					c0.3,0.5,0.8,0.9,1.6,0.9c0,0,0.1,0,0.1,0c0.2,0.6,0.6,1.1,1.3,1.4c1.2,0.6,2.5,1.2,3.7,1.8c1.3,1.1,2.9,0.4,3.3-1
					c1-0.4,1.8-1.8,1.1-2.9C409.3,387.7,408.8,387.3,407.7,387.1z"/>
				<path class="st10" d="M225.9,413.5c-2.1-0.4-4.7-0.9-6.8-2c0.2-0.5,0.1-1-0.2-1.5c-1.3-1.9-2.7-3.7-4.1-5.5
					c0-0.6-0.1-1.2-0.1-1.8c0-0.8-0.5-1.4-1.1-1.7c0.3-0.3,0.7-0.6,1.1-0.9c0.9-0.5,1.4-1.9,0.7-2.7c-3.1-4.1-6.6-7.5-10.7-10.3
					c-5.6-5.6-12.1-9.5-19.7-11.8c-2-0.6-3.2,1.9-2,3.4c0.6,0.6,1.1,1.2,1.7,1.7c-0.4,0.8-0.2,1.9,0.8,2.5
					c6.2,4.1,11.9,8.7,17.1,13.9c0.3,0.8,0.6,1.6,0.8,2.4c-1.1,0-2.2,1-1.9,2.5c0.4,1.9,0.8,3.7,1.2,5.6c0.2,0.7,0.7,1.2,1.3,1.3
					c0,0.6,0,1.3,0,1.9c-0.2,1.5,0.9,2.9,2.5,2.5c0.4,0.7,0.8,1.4,1.3,2c0.7,2.6,4.2,1.4,3.9-1.1c-0.1-0.5-0.2-0.9-0.3-1.3
					c0.3-0.2,0.5-0.5,0.6-0.9c0.1,0.2,0.1,0.4,0.2,0.5c0.4,1.2,1.9,1.8,2.9,1.2c2.5,2.2,6.2,3.3,9.6,3.9
					C227.4,417.8,228.5,413.9,225.9,413.5z M208,402.4c0,0,0-0.1,0-0.1C208,402.3,208,402.3,208,402.4
					C208,402.4,208,402.4,208,402.4L208,402.4C208,402.4,208,402.4,208,402.4z M210.8,399.5C210.8,399.5,210.8,399.5,210.8,399.5
					C210.8,399.5,210.9,399.5,210.8,399.5C210.9,399.5,210.8,399.5,210.8,399.5z"/>
				<path class="st10" d="M325.4,400.9c-4.1-1.1-8.2-1.6-12.5-1.6c-0.1,0-0.2,0-0.3,0c-0.6-0.7-1.5-1-2.4-0.4c-1.3,1-2.7,2-4,3
					c0.3-1.1-0.3-2.6-1.9-2.6c-3.2-0.1-6.3,0.4-9.4,1.4c-0.9,0.3-1.3,1-1.4,1.7c-1.5,0-3.1-0.1-4.6-0.2c-2.6-0.1-2.6,3.9,0,4
					c2.7,0.1,5.5,0.2,8.2,0.2c-0.2,1.1,0.6,2.6,2,2.6c0.4,0,0.8,0,1.1,0.1c-0.4,0.8-0.5,1.8,0.3,2.5c1.4,1.1,2.8,1.5,4.5,1.1
					c0.7-0.2,1.1-0.7,1.3-1.3c0.6,1,1.9,1.4,3.1,0.4c1.7-1.5,3.1-3.1,4.4-4.9c1.7,1,3.9,1.1,6-0.5c0.7-0.5,1.1-1.6,0.8-2.5
					c1.3,0.2,2.6,0.5,3.8,0.8C326.8,405.5,327.9,401.6,325.4,400.9z M306.1,409.5C306.1,409.5,306.1,409.5,306.1,409.5
					c-0.2-0.7-0.4-1.4-0.8-2c0.1-0.1,0.2-0.2,0.3-0.3c0.1,0.1,0.1,0.1,0.2,0.2c-0.1,0.6,0.1,1.1,0.5,1.5
					C306.3,409,306.2,409.2,306.1,409.5z"/>
			</g>
			<g>
				<path class="st11" d="M289.2,337.7l-1.3,1.5l1.2-2.1c-0.4-1.2-0.8-2.5-1.1-3.6l-1.1,1.2l1-1.7c-0.9-2.8-1.6-5.1-1.6-5.1
					s-1.9,6-3.3,10.6l2,3.5l-2.2-2.9c-0.6,2.1-1.1,4.1-1.1,4.6c0,1.4,3.5,3.9,3.5,3.9l0.5,0.4l0,1.1h0.7l0-1l1.2-0.6
					c0,0,3.4-2.3,3.4-3.6C290.8,343.1,290.1,340.6,289.2,337.7z"/>
				<path class="st11" d="M295.7,340l-1.1,1.2l0.9-1.6c-0.3-1-0.6-2-0.9-2.9l-0.9,1l0.8-1.3c-0.7-2.2-1.3-4-1.3-4s-1.5,4.7-2.6,8.4
					l1.6,2.8l-1.8-2.3c-0.5,1.7-0.9,3.2-0.9,3.6c0,1.1,2.7,3.1,2.7,3.1l0.4,0.3l0,0.9h0.5l0-0.8l1-0.5c0,0,2.7-1.8,2.7-2.9
					C296.9,344.4,296.4,342.3,295.7,340z"/>
				<path class="st11" d="M304.8,342.4l-0.8,0.9l0.7-1.2c-0.2-0.7-0.4-1.4-0.7-2.1l-0.6,0.7l0.6-1c-0.5-1.6-0.9-3-0.9-3
					s-1.1,3.5-1.9,6.2l1.2,2.1l-1.3-1.7c-0.4,1.2-0.6,2.4-0.6,2.7c0,0.8,2,2.2,2,2.2l0.3,0.2l0,0.6h0.4l0-0.6l0.7-0.4
					c0,0,2-1.3,2-2.1C305.7,345.6,305.3,344.1,304.8,342.4z"/>
				<path class="st11" d="M261.3,338.9l-0.8,0.9l0.7-1.2c-0.2-0.7-0.4-1.4-0.7-2.1l-0.6,0.7l0.6-1c-0.5-1.6-0.9-3-0.9-3
					s-1.1,3.5-1.9,6.2l1.2,2.1l-1.3-1.7c-0.4,1.2-0.6,2.4-0.6,2.7c0,0.8,2,2.2,2,2.2l0.3,0.2l0,0.6h0.4l0-0.6l0.7-0.4
					c0,0,2-1.3,2-2.1C262.2,342.1,261.8,340.6,261.3,338.9z"/>
				<path class="st11" d="M717.4,297.8l-1.3,1.5l1.2-2.1c-0.4-1.2-0.8-2.5-1.1-3.6l-1.1,1.2l1-1.7c-0.9-2.8-1.6-5.1-1.6-5.1
					s-1.9,6-3.3,10.6l2,3.5l-2.2-2.9c-0.6,2.1-1.1,4.1-1.1,4.6c0,1.4,3.5,3.9,3.5,3.9l0.5,0.4l0,1.1h0.7l0-1l1.2-0.6
					c0,0,3.4-2.3,3.4-3.6C719,303.3,718.3,300.7,717.4,297.8z"/>
				<path class="st11" d="M722.5,300.2l-1.1,1.2l0.9-1.6c-0.3-1-0.6-2-0.9-2.9l-0.9,1l0.8-1.3c-0.7-2.2-1.3-4-1.3-4
					s-1.5,4.7-2.6,8.4l1.6,2.8l-1.8-2.3c-0.5,1.7-0.9,3.2-0.9,3.6c0,1.1,2.7,3.1,2.7,3.1l0.4,0.3l0,0.9h0.5l0-0.8l1-0.5
					c0,0,2.7-1.8,2.7-2.9C723.8,304.5,723.2,302.5,722.5,300.2z"/>
				<path class="st11" d="M734.3,302.6l-0.8,0.9l0.7-1.2c-0.2-0.7-0.4-1.4-0.7-2.1l-0.6,0.7l0.6-1c-0.5-1.6-0.9-3-0.9-3
					s-1.1,3.5-1.9,6.2l1.2,2.1l-1.3-1.7c-0.4,1.2-0.6,2.4-0.6,2.7c0,0.8,2,2.2,2,2.2l0.3,0.2l0,0.6h0.4l0-0.6l0.7-0.4
					c0,0,2-1.3,2-2.1C735.2,305.8,734.8,304.3,734.3,302.6z"/>
				<path class="st11" d="M953.7,335.3l-1.3,1.5l1.2-2.1c-0.4-1.2-0.8-2.5-1.1-3.6l-1.1,1.2l1-1.7c-0.9-2.8-1.6-5.1-1.6-5.1
					s-1.9,6-3.3,10.6l2,3.5l-2.2-2.9c-0.6,2.1-1.1,4.1-1.1,4.6c0,1.4,3.5,3.9,3.5,3.9l0.5,0.4l0,1.1h0.7l0-1l1.2-0.6
					c0,0,3.4-2.3,3.4-3.6C955.2,340.8,954.5,338.2,953.7,335.3z"/>
				<path class="st11" d="M960.1,337.7l-1.1,1.2l0.9-1.6c-0.3-1-0.6-2-0.9-2.9l-0.9,1l0.8-1.3c-0.7-2.2-1.3-4-1.3-4
					s-1.5,4.7-2.6,8.4l1.6,2.8l-1.8-2.3c-0.5,1.7-0.9,3.2-0.9,3.6c0,1.1,2.7,3.1,2.7,3.1l0.4,0.3l0,0.9h0.5l0-0.8l1-0.5
					c0,0,2.7-1.8,2.7-2.9C961.3,342,960.8,340,960.1,337.7z"/>
				<path class="st11" d="M941.1,333.4l-0.8,0.9l0.7-1.2c-0.2-0.7-0.4-1.4-0.7-2.1l-0.6,0.7l0.6-1c-0.5-1.6-0.9-3-0.9-3
					s-1.1,3.5-1.9,6.2l1.2,2.1l-1.3-1.7c-0.4,1.2-0.6,2.4-0.6,2.7c0,0.8,2,2.2,2,2.2l0.3,0.2l0,0.6h0.4l0-0.6l0.7-0.4
					c0,0,2-1.3,2-2.1C942,336.6,941.6,335.1,941.1,333.4z"/>
				<path class="st11" d="M690.8,297.7l-0.8,0.9l0.7-1.2c-0.2-0.7-0.4-1.4-0.7-2.1l-0.6,0.7l0.6-1c-0.5-1.6-0.9-3-0.9-3
					s-1.1,3.5-1.9,6.2l1.2,2.1l-1.3-1.7c-0.4,1.2-0.6,2.4-0.6,2.7c0,0.8,2,2.2,2,2.2l0.3,0.2l0,0.6h0.4l0-0.6l0.7-0.4
					c0,0,2-1.3,2-2.1C691.8,300.9,691.3,299.4,690.8,297.7z"/>
			</g>
			<path class="st10" d="M1280,480.5L1280,480.5c-46.5-65.1-117.5-108.4-196.7-120c-34.4-5.1-49.5-10.8-54.3-10.8
				c-8.9,0-47.7,3.1-55.6,4c-7.9,0.9-27.3,4-34,3.1c-3.1-0.4-11,0.2-19.1,1c-3.1,0.3-7,0.7-11.4,1.2c-4.8,0.5-8.7,0.9-10.5,0.9
				c-4.9,0-19.3,1.6-27,4c-13.2,1.8-27.5,3.8-41.3,5.6c-3.1,0-6.2,0.1-8.9,1.2c0,0,0,0,0,0c-28.3,3.7-53.2,6.4-61.2,5.4
				c-18.7-2.3-79,21.8-90.6,21.8c-11.6,0.1-63.5,32.8-72.9,33.3s-69.1-0.9-74.6-2.3c-5.5-1.4-72.5-9.3-102.8-7.1
				c-24.8,1.8-41.3,7-46.5,8.8c4.6,3.7,9.3,8.9,15.7,9.9c7.6,1.3,24.5,3.7,93.2,21.7c-14.7,5.5-31.2,12.2-46.1,18.3H1280z"/>
		</g>
	</g>
</g>
<g>
	<defs>
		<rect id="SVGID_8_" width="1280" height="480"/>
	</defs>
	<clipPath id="SVGID_9_">
		<use xlink:href="#SVGID_8_"  style="overflow:visible;"/>
	</clipPath>
	<g class="st12">
		<path class="st11" d="M1280.5,480.5V301.3c-121.7-0.8-242.6,20.9-251,20.9c-8.9,0-47.7,3.8-55.6,4.9c-7.9,1.1-27.3,4.9-34,3.8
			c-6.7-1.1-35.2,3.8-41,3.8c-5.8,0-24.5,2.7-30.3,6.5c-5.8,3.8-26.3,3.8-30.8,4.8c-4.5,1-11.1-0.5-16.1,1.8
			c-4.9,2.3-43.7,14.4-50.8,16.6c-7.1,2.2-9,5.9-13.9,9.6c-4.9,3.6-8.5-2-13.4,0c-4.9,2-12.5,3.4-12.9,6.6
			c-0.4,3.2-5.4,11.9-12.1,12.1s-71.2,23-76.1,26.8s-81.6,9.7-89.6,12.9c-8,3.2-13.8,8.7-35.7,12.8c-14,2.6-51.2,20.5-81.4,35.5
			H1280.5z"/>
		<path class="st11" d="M362.1,426.9c-9.8,2.3-37.5,2.2-43.2,1.4c-5.8-0.8-18.3-1.4-21.4-3.7c-3.1-2.2-41.9-6.7-48.6-5.8
			c-6.7,0.9-45-9.4-48.2-15.4c-3.1-6-24.5-14.1-28.1-17.2c-3.6-3.1-14.7-13.4-21.8-15.6c-7.1-2.2-37.5-22.3-41.5-23.6
			c-4-1.3-17.8-8.5-32.1-16.6c-13.7-7.8-57.5-22.7-76.7-29v179.1h549.7c-127.1-34.7-151.6-38.3-161.3-39.9
			C377.7,438.8,371.9,424.6,362.1,426.9z"/>
		<g>
			<g>
				<g class="st13">
					<path class="st14" d="M872.4,351.9l5.5-1.1c0.1,0,0.1,0,0.2,0l5.1,1.3c0.1,0,0.2,0.1,0.3,0.3l1.1,4.5c0.1,0.3-0.2,0.5-0.5,0.4
						l-11.7-4.7C872,352.4,872,351.9,872.4,351.9z"/>
					<path class="st14" d="M887.2,351.5l4.5-2c0.1,0,0.2,0,0.2,0l11.9,2.4c0.2,0.1,0.3,0.2,0.4,0.5l7.1,8.4c0.1,0.5-0.3,1-0.7,0.8
						l-23.5-8.7C886.6,352.5,886.7,351.6,887.2,351.5z"/>
				</g>
				<g class="st13">
					<path class="st14" d="M987.4,401.4l5.5-1.1c0.1,0,0.1,0,0.2,0l5.1,1.3c0.1,0,0.2,0.1,0.3,0.3l1.1,4.5c0.1,0.3-0.2,0.5-0.5,0.4
						l-11.7-4.7C987,401.9,987.1,401.4,987.4,401.4z"/>
					<path class="st14" d="M971.5,397l4.5-2c0.1,0,0.2,0,0.2,0l11.9,2.4c0.2,0.1,0.3,0.2,0.4,0.5l7.1,8.4c0.1,0.5-0.3,1-0.7,0.8
						l-23.5-8.7C970.9,398,971,397.1,971.5,397z"/>
				</g>
				<g class="st13">
					<path class="st14" d="M1231,315.4l4.5-2c0.1,0,0.2,0,0.2,0l11.9,2.4c0.2,0.1,0.3,0.2,0.4,0.5l7.1,8.4c0.1,0.5-0.3,1-0.7,0.8
						l-23.5-8.7C1230.4,316.4,1230.4,315.5,1231,315.4z"/>
				</g>
				<g class="st13">
					<path class="st14" d="M1024.1,345.3l17.6-3.5c0.2,0,0.3,0,0.5,0l16.3,4.1c0.4,0.1,0.7,0.4,0.8,0.8l3.6,14.4
						c0.2,0.9-0.7,1.6-1.5,1.3l-37.5-15C1022.9,347,1023,345.5,1024.1,345.3z"/>
					<path class="st14" d="M1126.3,341.3l10.1-4.9c0.3,0,0.5,0,0.8,0l34.8,6.8c0.6,0.1,1.1,0.4,1.3,0.8l5.6,14.4
						c0.3,0.9-1,1.6-2.3,1.3l-50.5-16.3C1124.4,343,1124.6,341.5,1126.3,341.3z"/>
					<path class="st14" d="M1077.3,346.7l14.4-6.6c0.3-0.1,0.5-0.1,0.8,0l38.2,7.6c0.6,0.2,1.1,0.8,1.3,1.5l22.8,26.9
						c0.3,1.6-1,3.1-2.3,2.4l-75.4-28C1075.4,349.9,1075.6,347.1,1077.3,346.7z"/>
				</g>
			</g>
			<g class="st13">
				<path class="st14" d="M220.5,413.7c0,0-3.7,0.2-4.1,0.6c-0.4,0.3-8.1,3.5-8,5.4c0.4-0.2,15.4-2.8,16.3-3.9
					C224.5,414.9,220.5,413.7,220.5,413.7z"/>
				<path class="st14" d="M75.6,384.8c0,0-14.4,0.9-16.2,2.2c-1.7,1.3-20.7,25.2-20.3,32.7c1.7-0.9,49.6-22.2,53.1-26.5
					C91.3,389.7,75.6,384.8,75.6,384.8z"/>
				<path class="st14" d="M116.6,387.3c0,0-11.6,0.7-13,1.8c-1.4,1.1-19.1,17.9-18.7,23.9c1.4-0.7,42.3-15.4,45.2-19
					C129.3,391.1,116.6,387.3,116.6,387.3z"/>
				<path class="st14" d="M43.6,387.2c0,0-7.6,0.5-8.5,1.1c-0.9,0.7-16.8,7.4-16.5,11.3c0.9-0.5,31.9-5.7,33.8-8
					C51.9,389.7,43.6,387.2,43.6,387.2z"/>
			</g>
			<path class="st15" d="M96.9,325.3l-14.1,18.4l12.7-22.4c-8.6-29.3-20.9-67.1-20.9-67.1s-4.6,14.3-10.2,32l6,10.7l-6.9-7.8
				c-2.3,7.4-4.8,15.3-7.1,23l7.4,13.1l-8.5-9.6c-5.5,18.3-10,34.6-10,38.4c0,8.5,21.7,23,21.7,23l7.6,4.1l-0.1,6.5h4.2l-0.3-6.9
				l3.4-2.3c0,0,21.9-15.8,21.9-24.4C103.8,351.2,100.7,338.5,96.9,325.3z"/>
			<path class="st15" d="M133.8,339.3l-11.4,14.8l10.2-18c-7-23.6-16.8-54-16.8-54s-3.7,11.5-8.2,25.8l4.9,8.6l-5.6-6.3
				c-1.9,6-3.8,12.4-5.7,18.5l6,10.6l-6.8-7.7c-4.4,14.8-8.1,27.9-8.1,31c0,6.9,17.5,18.5,17.5,18.5l6.1,3.3l-0.1,5.2h3.4l-0.2-5.6
				l2.7-1.8c0,0,17.7-12.8,17.7-19.6C139.3,360.2,136.8,350,133.8,339.3z"/>
			<path class="st15" d="M54.8,355.9l-7.4,9.7l6.6-11.8c-4.5-15.4-11-35.2-11-35.2s-2.4,7.5-5.3,16.8l3.2,5.6l-3.6-4.1
				c-1.2,3.9-2.5,8.1-3.7,12.1l3.9,6.9l-4.5-5c-2.9,9.6-5.3,18.2-5.3,20.2c0,4.5,11.4,12.1,11.4,12.1l4,2.1l0,3.4h2.2l-0.2-3.6
				l1.8-1.2c0,0,11.5-8.3,11.5-12.8C58.4,369.5,56.8,362.9,54.8,355.9z"/>
			<path class="st15" d="M225.9,398.6l-3.6,4.7l3.2-5.7c-2.2-7.4-5.3-17-5.3-17s-1.2,3.6-2.6,8.1l1.5,2.7l-1.8-2
				c-0.6,1.9-1.2,3.9-1.8,5.8l1.9,3.3l-2.2-2.4c-1.4,4.6-2.5,8.8-2.5,9.7c0,2.2,5.5,5.8,5.5,5.8l1.9,1l0,1.6h1.1l-0.1-1.8l0.9-0.6
				c0,0,5.6-4,5.6-6.2C227.7,405.2,226.9,401.9,225.9,398.6z"/>
			<g>
				<path class="st15" d="M1118.5,254.5l-10.4,11.6l9-16c-2.8-9.4-5.8-19-8.6-28l-8.4,9.5l7.3-13c-6.8-21.6-12.4-39-12.4-39
					s-14.9,46-25.4,81.7l15.4,27.3l-17.2-22.4c-4.6,16.1-8.4,31.5-8.4,35.1c0,10.4,26.7,29.7,26.7,29.7l4.1,2.8l-0.4,8.5h5.2
					l-0.1-7.9l9.3-5c0,0,26.4-17.6,26.4-28C1130.7,296.6,1125.2,276.8,1118.5,254.5z"/>
				<path class="st15" d="M1154.2,281l-6.9,7.8l6.1-10.7c-1.9-6.3-3.9-12.7-5.8-18.8l-5.6,6.4l4.9-8.7c-4.5-14.5-8.3-26.1-8.3-26.1
					s-10,30.8-17,54.6l10.3,18.2l-11.5-15c-3.1,10.7-5.6,21.1-5.6,23.5c0,6.9,17.9,19.8,17.9,19.8l2.8,1.9l-0.3,5.7h3.5l-0.1-5.3
					l6.2-3.3c0,0,17.7-11.8,17.7-18.7C1162.4,309.2,1158.7,295.9,1154.2,281z"/>
				<path class="st15" d="M1241.2,292.4l-2.5,2.9l2.2-3.9c-0.7-2.3-1.4-4.7-2.1-6.9l-2.1,2.3l1.8-3.2c-1.7-5.3-3.1-9.6-3.1-9.6
					s-3.7,11.3-6.3,20.1l3.8,6.7l-4.2-5.5c-1.1,3.9-2.1,7.7-2.1,8.6c0,2.6,6.6,7.3,6.6,7.3l1,0.7l-0.1,2.1h1.3l0-1.9l2.3-1.2
					c0,0,6.5-4.3,6.5-6.9C1244.2,302.7,1242.9,297.9,1241.2,292.4z"/>
				<path class="st15" d="M982.6,374.7l-2.5,2.9l2.2-3.9c-0.7-2.3-1.4-4.7-2.1-6.9l-2.1,2.3l1.8-3.2c-1.7-5.3-3.1-9.6-3.1-9.6
					s-3.7,11.3-6.3,20.1l3.8,6.7l-4.2-5.5c-1.1,3.9-2.1,7.7-2.1,8.6c0,2.6,6.6,7.3,6.6,7.3l1,0.7l-0.1,2.1h1.3l0-1.9l2.3-1.2
					c0,0,6.5-4.3,6.5-6.9C985.6,385,984.3,380.2,982.6,374.7z"/>
				<path class="st15" d="M996.8,388.5l-1.7,1.9l1.5-2.6c-0.5-1.5-1-3.1-1.4-4.6l-1.4,1.6l1.2-2.1c-1.1-3.6-2-6.4-2-6.4
					s-2.5,7.6-4.2,13.4l2.5,4.5l-2.8-3.7c-0.8,2.6-1.4,5.2-1.4,5.8c0,1.7,4.4,4.9,4.4,4.9l0.7,0.5l-0.1,1.4h0.8l0-1.3l1.5-0.8
					c0,0,4.3-2.9,4.3-4.6C998.8,395.4,997.9,392.2,996.8,388.5z"/>
				<path class="st15" d="M898.8,328.8l-2.5,2.9l2.2-3.9c-0.7-2.3-1.4-4.7-2.1-6.9l-2.1,2.3l1.8-3.2c-1.7-5.3-3.1-9.6-3.1-9.6
					s-3.7,11.3-6.3,20.1l3.8,6.7l-4.2-5.5c-1.1,3.9-2.1,7.7-2.1,8.6c0,2.6,6.6,7.3,6.6,7.3l1,0.7l-0.1,2.1h1.3l0-2l2.3-1.2
					c0,0,6.5-4.3,6.5-6.9C901.8,339.2,900.5,334.3,898.8,328.8z"/>
				<path class="st15" d="M882.1,335.3l-2,2.2l1.7-3c-0.5-1.8-1.1-3.6-1.6-5.3l-1.6,1.8l1.4-2.5c-1.3-4.1-2.3-7.4-2.3-7.4
					s-2.8,8.7-4.8,15.4l2.9,5.1l-3.2-4.2c-0.9,3-1.6,5.9-1.6,6.6c0,2,5,5.6,5,5.6l0.8,0.5l-0.1,1.6h1l0-1.5l1.7-0.9c0,0,5-3.3,5-5.3
					C884.4,343.2,883.3,339.5,882.1,335.3z"/>
				<path class="st15" d="M1063.8,273.8l-8.3,9.4l7.3-12.9c-2.3-7.5-4.7-15.3-6.9-22.6l-6.8,7.6l5.9-10.5c-5.5-17.4-10-31.4-10-31.4
					s-12,37.1-20.5,65.8l12.4,22l-13.8-18c-3.7,12.9-6.8,25.4-6.8,28.3c0,8.4,21.5,23.9,21.5,23.9l3.3,2.2l-0.3,6.8h4.2l-0.1-6.4
					l7.5-4c0,0,21.3-14.2,21.3-22.5C1073.6,307.7,1069.2,291.8,1063.8,273.8z"/>
			</g>
		</g>
		<path class="st15" d="M1053.5,435.1c0,0,0,0,2.3-2.1c2.3-2.1,0.3-2.5,4-3.2c3.7-0.7,4,4.3,3.3,5.3
			C1062.5,436.1,1053.8,437.1,1053.5,435.1z M1131.7,375.9c0,0-3.9-4.3-6,0C1124.3,379,1131.7,375.9,1131.7,375.9z M1111,440.8
			c4.3-0.3,10.3,0.1,11-1.6c0.7-1.7-9.3-6.7-19.7-1.7C1099.6,438.7,1106.6,441.1,1111,440.8z M1130.7,421c1-3-15-4.7-17.4,0
			C1112,423.7,1129.7,424,1130.7,421z M793,452.2c2.3-0.7,10-2.5,12.4-1.8c2.3,0.7,4.3-1.8,1.7-3.7c-2.7-1.9-8-0.1-12,0
			c-4,0.1-10.4-1.2-10.7,1.8C783.9,451.8,790.6,452.9,793,452.2z M980.9,428.1c7.7-3.3,21.1,0,26.1,0.6s4.3-5.3,5-7.6
			c0.7-2.3-3.7-2.3-9-1c-5.4,1.3-5-4.3-10.4-4.7c-5.4-0.3-5.7-2.7-9.7-2.7c-4,0-3.3,3.7-9,8c-5.7,4.3-2.7-5.4-8,0
			c-5.4,5.4-21.7,15.4-30.1,22.8c0,0,13.7-4.8,17.7-5.4C957.5,437.4,973.2,431.4,980.9,428.1z M1223.7,365.9c0.7-1.7-6-3.3-8.4,0
			C1214.5,367,1223,367.5,1223.7,365.9z M1026,407c0.3-1.3-8-5.4-11-1.7C1013.9,406.7,1025.7,408.3,1026,407z M1165.5,435.2
			c2-1.8-7-1.8-11.4,0C1152.3,436,1163.5,437.1,1165.5,435.2z M1176.2,426.4c0-1.7-2-5.8-6.4-3.2
			C1167.9,424.3,1176.2,428.1,1176.2,426.4z M1192.6,344.5c0.7-1.3-5.7-3-6.4,0C1185.7,346.5,1191.9,345.8,1192.6,344.5z
			 M1077.5,451.5c0.7-1.7-10-3.7-11-2C1065.5,451.1,1076.9,453.1,1077.5,451.5z M1149.8,443.5c3.7-1.4,9.4-0.7,9-2.7
			c-0.3-2-14.4-2.3-17.4,0C1139.8,442,1146.1,444.9,1149.8,443.5z M1102.9,397c0.7-2-9-5.4-14,0C1086.3,399.7,1102.3,399,1102.9,397
			z M1089.1,443.5c1.1-2.4-7.8-4.9-11.6-2C1075.5,443.1,1088,445.9,1089.1,443.5z M783.6,408c-2-1.3-7.7-3.3-11.4,0
			C769.3,410.6,785.6,409.3,783.6,408z M116.2,425c3.7-1,9-1.7,11.7-2c2.7-0.3-1.7-6-4.7-5c-3,1-8-1.2-10.7-0.1s-8.4,1.1-9.7,5.1
			C102.1,425.2,112.5,426,116.2,425z M163.3,405.1c2.7,0.8,6.8,1,7.3-0.8c0.4-1.8-5.7-5.6-6.5-2.4c-0.8,3.2-6.5,1.7-6.5,1.7
			C158,405.3,160.7,404.3,163.3,405.1z M150.3,430.4c1.7,0.3,7.4,0,7.7-1.2c0.3-1.2-3.7-3.5-7.2-2.5s-7.2,1.3-7.2,1.3
			C143.3,430.4,148.6,430.1,150.3,430.4z M1277.2,392.9c-1.3,0.7-7.4-1-8.7,0c-1.3,1-8.4,4-10.7,6c-2.3,2-14.4,1.3-16.4,3.3
			c-2,2-10,1.7-11.7,4.7c-1.7,3-8.4-6.7-10.7-4.3c-2.3,2.3-13,5.7-15.4,7.7c-2.3,2-7.7,2.7-8,4.7c-0.3,2,0,3.3,0,6.7s-15,4-16.1,6.4
			c-1,2.3,0.3,7-1.7,9c-2,2-11,0-14.4,2c-3.3,2-7,5-10,6.7c-3,1.7-6,3-10,2.3s-7.7-5-9.4-4.3s-10.4,1.7-12,3c-1.7,1.3-5.7-0.7-8-1.7
			c-2.3-1-6,0.7-8.4,1.3c-2.3,0.7-4.7,1.3-6,2.7c-1.3,1.3-5.7,1-9.4,1c-3.7,0-11.7,4-14.4,6.1c-2.7,2.1-6.7,0.3-12,0
			s-13.7-5.8-16.1-5.4c-2.3,0.3-1.7,3.3-4,5.4c-2.3,2.1-6.7-0.1-8.4,1.6c-1.7,1.7-5.4,3.3-9.4,2.7c-4-0.7-8.4,1.7-10.7,2.3
			c-2.3,0.7,1.7,2,0,3c-1.7,1-8.4,0-11.7,2c-3.3,2-28.8,3-33.8,0c-5-3-16.1-2-20.7,0c-4.7,2-12.4-4.3-16.1-2.3
			c-3.7,2-18.4,0.7-22.4,0c-4-0.7-17.4-4.7-20.1-3.7c-2.7,1-13.7,1-17.7,0.3c-4-0.7-8.4,0-11.7,1c-3.3,1-8,0.7-11.4-0.3
			c-3.3-1-10.4-0.3-13.7-0.7c-3.3-0.3-4,2.3-6.7,5.7c-2.7,3.3-29.8,2.3-35.8,0c-6-2.3-20.1-1.7-25.1-4c-5-2.3-10.7-7.7-14-7.6
			c-3.3,0.1-14.7-3.1-18.4-5.4c-3.7-2.3-9,0.7-14.7-2c-5.7-2.7-15.7,1.7-23.4,1.3s-8.4,0.7-11.4,3.7c-3,3-19.4,2.7-25.4,2.4
			s-10.7-4.4-14.4-5.4s-8.4,5-12.4,5.4c-4,0.4-14-2.4-18.4-6.8c-4.3-4.3-22.1-1-23.7-1c-1.7,0-2,3.3-4.3,1.7
			c-2.3-1.7-12.4-5.4-15-5.4c-2.7,0-0.3,2-4,1.7s-4,0.7-5,1.3c-1,0.7-4.3,0.3-6.7,2c-2.3,1.7-5.7,7-8.7,8c-3,1-6,0-7.4,1.3
			c-1.3,1.3-5,1-9.7,1.7c-4.7,0.7-4.7,3.7-8.4,2c-3.7-1.7-4.3,3-2,5c2.3,2-15.7,3.3-20.7,0c-5-3.3-21.7-4.3-26.1-3.3
			c-4.3,1-22.7,0.7-26.8,3.3c-4,2.7-39.5,3.3-44.8,0c-5.4-3.3-20.4-6-24.4-6s-13.7,1-16.4,2.7c-2.7,1.7-17.7-0.3-19.4-0.7
			c-1.7-0.3-3.7-1.7-5.4-1.7c-1.7,0-8.4,5.7-10.4,5.7c-2,0-12-7-15.4-7.7c-3.3-0.7-11.4-2.3-12.7-3.3c-1.3-1-4.7-11.7-6-13
			c-1.3-1.3-10.7-1-12.7-1.4c-2-0.4-7,3.8-9.4,5.1s-6-3-9.7-4.3c-3.7-1.3-4.7-1-9,1.7c-4.3,2.7-7.4,8.4-10.7,9.3s-8.4,4.8-10.7,6.1
			c-2.3,1.3-11.7-1-13.7-3c-2-2-9-3.3-9-1.7c0,1.7-7.4,3-11.4,2c-4-1-7-4.3-9-3.4s-2.3,1.4-5.4,1.8s-12-6.7-14-7s-5.7,5.4-7.4,3.3
			c-1.7-2-10-2.3-9.7,0c0.3,2.3-3.3,1.7-6.7,1.9s-7.4-4.9-10-6.9c-2.7-2-32.8,0-32.8,0l3.3,4.7c0,0-34.1-5.4-46.8-4.7
			c-12.7,0.7-16.7-16.7-25.4-16.1S0.5,388.2,0.5,388.2v91.7h1280v-92.1C1279.1,390,1277.9,392.6,1277.2,392.9z M761.5,448.8
			c2-1,7.4,1.4,8.7,1s2-7.7-9.9-6c-11.9,1.7-9.9,5-9.9,5C750.5,450.5,759.5,449.8,761.5,448.8z M505.7,456c3-0.2,7-0.5,6.7-1.8
			c-0.3-1.3-11-3.7-13,0C498.4,455.9,502.7,456.1,505.7,456z M547.9,435.9c-1-1.1-5.7,0-5.7,0C541.9,437.4,548.9,437,547.9,435.9z
			 M720.8,429.4c1-1.3,4.3-5,0-3.3c-4.3,1.7-5.7,3.3-6.4,5C713.7,432.7,719.7,430.7,720.8,429.4z M386.7,457.8
			c-2-2.2-16.7-2.7-17.7,0C368.5,459.1,384.4,463.2,386.7,457.8z M155.3,435.1c-0.1,0.7,9.7,1.3,8.7,0
			C163,433.7,155.7,432.4,155.3,435.1z M244.3,428.2c3.7,0.2,9.4-0.7,10-3.9c0.7-3.2-11.4-2.1-16.1,0c-4.7,2.1-8,0.4-9.4,3.9
			C227.7,431.4,240.6,428,244.3,428.2z"/>
	</g>
</g>
</svg>
